<?xml version="1.0" encoding="iso-8859-1"?>
<!-- Uploaded to: SVG Repo, www.svgrepo.com, Generator: SVG Repo Mixer Tools -->
<svg height="800px" width="800px" version="1.1" id="Layer_1" xmlns="http://www.w3.org/2000/svg" xmlns:xlink="http://www.w3.org/1999/xlink" 
	 viewBox="0 0 512 512" xml:space="preserve">
<path style="fill:#FF0F4D;" d="M278.302,0C270.754,0,263.314,0.46,256,1.328l-20.898,266.318L256,512h135.583V336.022
	c44.864-34.181,73.827-88.161,73.827-148.916C465.41,83.771,381.64,0,278.302,0z"/>
<path style="fill:#FF6E7A;" d="M91.196,187.108L46.59,315.375h44.606v109.702h99.314V512H256V1.328
	C163.179,12.355,91.196,91.319,91.196,187.108z"/>
<path style="fill:#2F91ED;" d="M295.283,54.987l-20.898,82.571l20.898,95.224l19.343,11.361
	c41.806,24.554,95.27-4.206,96.816-52.665c0.036-1.108,0.057-2.217,0.066-3.33C412.022,120.352,361.113,63.435,295.283,54.987z"/>
<path style="fill:#63C1FF;" d="M280.873,53.922c-25.865-0.49-50.112,6.433-70.755,18.785
	c-41.798,25.009-41.275,85.811,0.725,110.479l84.44,49.595V54.987C290.552,54.38,285.745,54.014,280.873,53.922z"/>
</svg>